<?xml version="1.0" encoding="UTF-8"?>
<svg id="Camada_2" data-name="Camada 2" xmlns="http://www.w3.org/2000/svg" viewBox="0 0 183.61 183.61">
  <defs>
    <style>
      .cls-1 {
        fill: #2e2e2e;
      }

      .cls-2 {
        fill: #4eba2b;
      }
    </style>
  </defs>
  <g id="Camada_1-2" data-name="Camada 1">
    <circle class="cls-1" cx="91.81" cy="91.81" r="91.81"/>
    <path class="cls-2" d="M114.08,48.92H47.06c-1.23,0-2.23,1-2.23,2.23v11.7c0,1.23,1,2.23,2.23,2.23h62.03c1.84,0,2.89,2.1,1.78,3.57l-7.83,10.38c-.42.56-1.08.89-1.78.89h-54.2c-1.23,0-2.23,1-2.23,2.23h0c0,1.23,1,2.23,2.23,2.23h32.36c1.84,0,2.89,2.1,1.78,3.57l-7.83,10.38c-.42.56-1.08.89-1.78.89h-24.53c-1.23,0-2.23,1-2.23,2.23h0c0,1.23,1,2.23,2.23,2.23h49.99c1.84,0,2.89,2.1,1.78,3.57l-7.83,10.38c-.42.56-1.08.89-1.78.89h-42.16c-1.23,0-2.23,1-2.23,2.23v11.7c0,1.23,1,2.23,2.23,2.23h66.66c3.82,0,7.47-1.58,10.1-4.36l10.76-11.42c2.7-2.86,4.2-6.65,4.2-10.58v-34.34c0-4.16-1.68-8.15-4.66-11.05l-10.36-10.09c-2.59-2.52-6.06-3.94-9.68-3.94Z"/>
  </g>
</svg>