<?xml version="1.0" encoding="UTF-8"?>
<svg id="Camada_2" data-name="Camada 2" xmlns="http://www.w3.org/2000/svg" viewBox="0 0 193.09 260.94">
  <defs>
    <style>
      .cls-1 {
        fill: #fff;
      }

      .cls-2 {
        fill: #2e2e2e;
      }

      .cls-3 {
        fill: #4eba2b;
      }
    </style>
  </defs>
  <g id="Camada_1-2" data-name="Camada 1">
    <rect class="cls-2" width="193.09" height="260.94" rx="17.15" ry="17.15"/>
    <g>
      <g>
        <path class="cls-1" d="M56.53,146.14c-4.23,0-7.73,1.39-10.41,4.14-2.67,2.74-4.02,6.22-4.02,10.34s1.38,7.65,4.11,10.38c2.73,2.73,6.31,4.11,10.64,4.11,5.37,0,9.44-2.1,12.12-6.24l.39-.6-5.07-2.88-.34.55c-1.46,2.36-3.74,3.51-6.99,3.51-2.32,0-4.3-.61-5.87-1.8-1.38-1.05-2.3-2.45-2.79-4.25h21.74l.09-.57c.11-.73.16-1.45.16-2.15,0-3.97-1.29-7.42-3.82-10.24-2.56-2.85-5.9-4.29-9.93-4.29ZM48.27,158.06c.44-1.8,1.29-3.23,2.61-4.35,1.48-1.27,3.38-1.91,5.65-1.91,1.96,0,3.62.59,5.09,1.79,1.27,1.04,2.13,2.55,2.56,4.48h-15.9Z"/>
        <path class="cls-1" d="M94.56,150.03c-2.32-2.58-5.42-3.89-9.25-3.89s-7.17,1.42-9.88,4.22c-2.7,2.8-4.08,6.25-4.08,10.26s1.37,7.47,4.08,10.26c2.71,2.8,6.04,4.22,9.88,4.22s6.93-1.31,9.25-3.89v3.21h5.92v-27.61h-5.92v3.21ZM92.08,166.85c-1.67,1.69-3.69,2.5-6.19,2.5s-4.47-.82-6.14-2.5c-1.67-1.69-2.48-3.72-2.48-6.22s.81-4.53,2.48-6.22c1.67-1.69,3.68-2.5,6.14-2.5s4.52.82,6.19,2.5c1.67,1.69,2.48,3.72,2.48,6.22s-.81,4.53-2.48,6.22h0Z"/>
        <path class="cls-1" d="M119.04,159.04l-4.3-1.26c-1.37-.4-2.56-.89-3.54-1.46-.83-.48-1.21-1.05-1.21-1.8,0-.87.34-1.5,1.06-1.98.79-.52,1.78-.79,2.94-.79,2.53,0,4.16.96,5,2.95l.29.7,5.05-2.83-.28-.57c-.9-1.83-2.25-3.28-4.02-4.3-1.76-1.02-3.79-1.53-6.04-1.53-2.81,0-5.19.79-7.07,2.36-1.92,1.6-2.9,3.66-2.9,6.14,0,1.92.57,3.52,1.7,4.76,1.09,1.21,2.44,2.06,3.99,2.52l4.3,1.29c1.37.41,2.55.91,3.51,1.49.82.49,1.2,1.08,1.2,1.86,0,.99-.36,1.66-1.14,2.12-.87.51-2.01.77-3.39.77-1.47,0-2.75-.34-3.79-1-1.03-.66-1.71-1.52-2.09-2.64l-.26-.78-5.17,2.96.23.55c.82,1.98,2.22,3.59,4.16,4.78,1.92,1.18,4.25,1.78,6.92,1.78,3.01,0,5.53-.77,7.48-2.3,2-1.56,3.02-3.67,3.02-6.26,0-1.98-.56-3.64-1.66-4.93-1.08-1.26-2.42-2.13-3.99-2.59Z"/>
        <path class="cls-1" d="M144.66,146.82l-7.31,19.02-8.27-19.02h-6.36l11.73,26.81-.36.7-.03.06c-1.39,3.55-3.47,5.17-6.38,4.94l-.73-.06v5.61l.63.04c.28.02.55.03.82.03,2.45,0,4.67-.75,6.59-2.24,2.1-1.63,3.76-4.02,4.92-7.09l11.07-28.8h-6.33Z"/>
        <path class="cls-1" d="M60.2,192.75v-5.76h-6.98v-7.58l-5.92,1.77v5.81h-3.53l-1.67,5.76h5.2v13.56c0,3.49,1.04,5.91,3.1,7.21,1.4.88,3.28,1.32,5.71,1.32,1.06,0,2.23-.08,3.51-.25l.59-.08v-5.39l-.7.03c-1.52.07-2.81.1-3.84.08-.86-.01-1.48-.22-1.86-.63-.38-.4-.58-1.2-.58-2.3v-13.56h6.98Z"/>
        <path class="cls-1" d="M83.38,190.2c-2.32-2.58-5.42-3.89-9.25-3.89s-7.17,1.42-9.89,4.22c-2.7,2.8-4.08,6.25-4.08,10.26s1.37,7.47,4.08,10.26c2.71,2.8,6.04,4.22,9.89,4.22s6.93-1.31,9.25-3.89v3.21h5.92v-27.61h-5.92v3.21ZM80.89,207.02c-1.67,1.69-3.69,2.5-6.19,2.5s-4.47-.82-6.14-2.5c-1.67-1.69-2.48-3.72-2.48-6.22s.81-4.53,2.48-6.22c1.67-1.69,3.68-2.5,6.14-2.5s4.52.82,6.19,2.5c1.67,1.69,2.48,3.72,2.48,6.22s-.81,4.53-2.48,6.22h0Z"/>
        <path class="cls-1" d="M115.36,190.2c-2.31-2.58-5.4-3.89-9.2-3.89s-7.28,1.4-9.99,4.17c-2.71,2.76-4.08,6.18-4.08,10.16s1.37,7.41,4.08,10.19c2.71,2.78,6.07,4.2,9.99,4.2s6.87-1.32,9.2-3.94v1.74c0,2.31-.69,4.07-2.12,5.39-1.42,1.31-3.43,1.97-5.98,1.97-4.03,0-6.63-1.32-7.95-4.03l-.31-.64-5.18,2.93.3.58c1.15,2.18,2.87,3.88,5.12,5.04,2.22,1.15,4.89,1.73,7.92,1.73,3.82,0,7.14-1.14,9.88-3.38,2.78-2.28,4.19-5.5,4.19-9.58v-25.83h-5.86v3.2ZM112.88,194.5c1.67,1.67,2.48,3.68,2.48,6.14s-.81,4.52-2.48,6.19c-1.67,1.67-3.7,2.48-6.19,2.48s-4.52-.81-6.19-2.48c-1.67-1.67-2.48-3.69-2.48-6.19s.81-4.47,2.48-6.14c1.67-1.67,3.7-2.48,6.19-2.48s4.52.81,6.19,2.48Z"/>
        <path class="cls-1" d="M143.77,201.8c-1.08-1.26-2.42-2.13-3.99-2.59l-4.3-1.26c-1.37-.4-2.56-.89-3.54-1.46-.83-.48-1.21-1.05-1.21-1.8,0-.87.34-1.5,1.06-1.98.79-.52,1.78-.79,2.94-.79,2.53,0,4.16.96,5,2.95l.29.7,5.05-2.83-.28-.57c-.9-1.83-2.25-3.28-4.02-4.3-1.76-1.02-3.79-1.53-6.04-1.53-2.81,0-5.19.79-7.07,2.36-1.92,1.6-2.9,3.66-2.9,6.14,0,1.92.57,3.52,1.7,4.76,1.09,1.21,2.44,2.06,3.99,2.52l4.3,1.29c1.37.41,2.55.91,3.51,1.49.82.49,1.2,1.08,1.2,1.86,0,.99-.36,1.66-1.14,2.12-.87.51-2.01.77-3.39.77-1.47,0-2.75-.34-3.79-1-1.03-.66-1.71-1.52-2.09-2.64l-.26-.78-5.17,2.96.23.55c.82,1.98,2.22,3.59,4.16,4.78,1.92,1.18,4.25,1.78,6.92,1.78,3.01,0,5.53-.77,7.48-2.3,2-1.56,3.02-3.67,3.02-6.26,0-1.98-.56-3.64-1.66-4.93Z"/>
      </g>
      <path class="cls-3" d="M118.26,35.16H44.55c-1.36,0-2.45,1.1-2.45,2.45v12.87c0,1.36,1.1,2.45,2.45,2.45h68.23c2.02,0,3.18,2.31,1.96,3.93l-8.61,11.42c-.46.61-1.19.98-1.96.98h-59.61c-1.36,0-2.45,1.1-2.45,2.45h0c0,1.36,1.1,2.45,2.45,2.45h35.59c2.02,0,3.18,2.31,1.96,3.93l-8.61,11.42c-.46.61-1.19.98-1.96.98h-26.98c-1.36,0-2.45,1.1-2.45,2.45h0c0,1.36,1.1,2.45,2.45,2.45h54.99c2.02,0,3.18,2.31,1.96,3.93l-8.61,11.42c-.46.61-1.19.98-1.96.98h-46.38c-1.36,0-2.45,1.1-2.45,2.45v12.87c0,1.36,1.1,2.45,2.45,2.45h73.32c4.2,0,8.22-1.73,11.1-4.79l11.83-12.56c2.97-3.15,4.62-7.31,4.62-11.64v-37.77c0-4.58-1.85-8.96-5.13-12.15l-11.4-11.1c-2.85-2.78-6.67-4.33-10.65-4.33Z"/>
    </g>
  </g>
</svg>