<?xml version="1.0" encoding="UTF-8"?>
<svg id="Camada_2" data-name="Camada 2" xmlns="http://www.w3.org/2000/svg" viewBox="0 0 636.13 115.63">
  <defs>
    <style>
      .cls-1 {
        fill: #74c63e;
      }

      .cls-2 {
        fill: #2e2e2e;
      }
    </style>
  </defs>
  <g id="Camada_1-2" data-name="Camada 1">
    <g>
      <path class="cls-2" d="M199.68,27.79c-9.41,0-17.2,3.1-23.16,9.22-5.94,6.1-8.95,13.85-8.95,23.01s3.08,17.02,9.14,23.08c6.06,6.07,14.03,9.14,23.67,9.14,11.94,0,21.01-4.67,26.96-13.89l.86-1.33-11.29-6.4-.76,1.23c-3.24,5.26-8.33,7.82-15.55,7.82-5.17,0-9.56-1.35-13.05-4.02-3.07-2.34-5.11-5.44-6.21-9.46h48.36l.19-1.28c.24-1.62.37-3.23.37-4.78,0-8.83-2.86-16.5-8.5-22.79-5.69-6.34-13.12-9.55-22.09-9.55ZM181.31,54.31c.97-3.99,2.88-7.18,5.8-9.69,3.29-2.82,7.52-4.25,12.57-4.25,4.35,0,8.05,1.3,11.31,3.98,2.82,2.32,4.73,5.67,5.69,9.96h-35.38Z"/>
      <path class="cls-2" d="M284.28,36.44c-5.15-5.74-12.06-8.65-20.58-8.65s-15.96,3.16-21.99,9.39c-6.02,6.22-9.07,13.9-9.07,22.83s3.05,16.61,9.07,22.83c6.03,6.23,13.43,9.39,21.99,9.39s15.43-2.91,20.58-8.65v7.13h13.16V29.31h-13.16v7.13ZM278.76,73.86c-3.71,3.75-8.22,5.57-13.77,5.57s-9.94-1.82-13.65-5.57c-3.72-3.75-5.52-8.28-5.52-13.84s1.81-10.09,5.52-13.84c3.71-3.75,8.18-5.57,13.65-5.57s10.06,1.82,13.77,5.57c3.72,3.75,5.52,8.28,5.52,13.84s-1.81,10.09-5.52,13.84h0Z"/>
      <path class="cls-2" d="M338.74,56.49l-9.58-2.81c-3.04-.89-5.69-1.99-7.87-3.25-1.84-1.07-2.69-2.34-2.69-4.02,0-1.94.75-3.34,2.36-4.4,1.77-1.16,3.97-1.75,6.54-1.75,5.62,0,9.26,2.15,11.12,6.56l.65,1.55,11.23-6.31-.62-1.27c-1.99-4.07-5-7.29-8.95-9.58-3.92-2.27-8.43-3.41-13.43-3.41-6.25,0-11.55,1.77-15.74,5.25-4.27,3.55-6.44,8.15-6.44,13.65,0,4.26,1.27,7.82,3.78,10.59,2.43,2.69,5.42,4.57,8.88,5.61l9.58,2.88c3.04.91,5.67,2.03,7.81,3.32,1.82,1.1,2.67,2.41,2.67,4.14,0,2.2-.8,3.7-2.53,4.71-1.94,1.14-4.47,1.72-7.53,1.72-3.28,0-6.11-.75-8.42-2.22-2.29-1.46-3.81-3.38-4.64-5.87l-.58-1.74-11.5,6.59.51,1.22c1.83,4.41,4.94,7.98,9.25,10.63,4.27,2.63,9.45,3.96,15.39,3.96,6.7,0,12.3-1.72,16.64-5.11,4.45-3.48,6.71-8.16,6.71-13.92,0-4.41-1.25-8.1-3.7-10.96-2.41-2.8-5.39-4.74-8.87-5.76Z"/>
      <path class="cls-2" d="M436.4,78.79c-1.91-.03-3.29-.5-4.13-1.39-.84-.9-1.29-2.67-1.29-5.11v-30.16h15.54v-12.81h-15.54V12.44l-13.16,3.93v12.94h-22.08l-16.26,42.32-18.41-42.32h-14.14l26.1,59.63-.79,1.56-.06.13c-3.1,7.89-7.73,11.5-14.2,10.99l-1.61-.12v12.49l1.4.09c.62.04,1.23.06,1.83.06,5.46,0,10.38-1.67,14.66-4.99,4.68-3.62,8.36-8.93,10.94-15.78l21.05-54.79v3.53h11.57v30.16c0,7.76,2.32,13.16,6.89,16.05,3.11,1.97,7.3,2.94,12.7,2.94,2.37,0,4.97-.19,7.81-.56l1.3-.17v-12l-1.57.07c-3.38.15-6.26.22-8.55.17Z"/>
      <path class="cls-2" d="M498.08,36.44c-5.15-5.74-12.06-8.65-20.58-8.65s-15.96,3.16-21.99,9.39c-6.02,6.22-9.07,13.9-9.07,22.83s3.05,16.61,9.07,22.83c6.03,6.23,13.43,9.39,21.99,9.39s15.43-2.91,20.58-8.65v7.13h13.16V29.31h-13.16v7.13ZM492.56,73.86c-3.71,3.75-8.22,5.57-13.77,5.57s-9.94-1.82-13.65-5.57c-3.72-3.75-5.52-8.28-5.52-13.84s1.81-10.09,5.52-13.84c3.71-3.75,8.18-5.57,13.65-5.57s10.06,1.82,13.77,5.57c3.72,3.76,5.52,8.28,5.52,13.84s-1.81,10.09-5.52,13.84h0Z"/>
      <path class="cls-2" d="M569.23,36.44c-5.14-5.74-12.01-8.65-20.46-8.65s-16.19,3.12-22.22,9.27c-6.02,6.14-9.07,13.75-9.07,22.6s3.05,16.48,9.07,22.66c6.03,6.19,13.51,9.33,22.22,9.33s15.27-2.94,20.46-8.76v3.88c0,5.14-1.54,9.06-4.72,11.98-3.16,2.92-7.64,4.39-13.3,4.39-8.96,0-14.75-2.93-17.69-8.97l-.7-1.43-11.53,6.52.68,1.29c2.55,4.85,6.38,8.62,11.39,11.21,4.94,2.55,10.87,3.85,17.63,3.85,8.5,0,15.89-2.53,21.98-7.52,6.18-5.07,9.31-12.24,9.31-21.31V29.31h-13.05v7.13ZM563.71,46.01c3.71,3.71,5.52,8.18,5.52,13.66s-1.81,10.06-5.52,13.78c-3.71,3.71-8.22,5.52-13.78,5.52s-10.06-1.81-13.78-5.52c-3.71-3.71-5.52-8.22-5.52-13.78s1.81-9.95,5.52-13.66c3.71-3.71,8.22-5.52,13.78-5.52s10.06,1.81,13.78,5.52Z"/>
      <path class="cls-2" d="M632.43,62.26c-2.41-2.8-5.39-4.74-8.87-5.77l-9.58-2.81c-3.04-.89-5.69-1.99-7.87-3.25-1.84-1.07-2.69-2.34-2.69-4.01,0-1.94.75-3.34,2.36-4.4,1.77-1.16,3.97-1.75,6.54-1.75,5.62,0,9.26,2.15,11.12,6.56l.65,1.55,11.23-6.31-.62-1.27c-1.99-4.07-5-7.29-8.95-9.58-3.92-2.27-8.43-3.41-13.43-3.41-6.25,0-11.55,1.77-15.74,5.25-4.27,3.55-6.44,8.15-6.44,13.65,0,4.26,1.27,7.82,3.78,10.59,2.43,2.69,5.42,4.57,8.88,5.61l9.58,2.88c3.04.91,5.67,2.03,7.81,3.32,1.82,1.1,2.67,2.41,2.67,4.14,0,2.2-.8,3.7-2.53,4.71-1.94,1.14-4.47,1.72-7.53,1.72-3.28,0-6.11-.75-8.42-2.22-2.29-1.46-3.81-3.38-4.64-5.87l-.58-1.74-11.5,6.59.51,1.22c1.83,4.41,4.94,7.98,9.25,10.63,4.27,2.63,9.45,3.96,15.39,3.96,6.7,0,12.3-1.72,16.64-5.11,4.45-3.48,6.71-8.16,6.71-13.92,0-4.41-1.24-8.1-3.7-10.96Z"/>
    </g>
    <path class="cls-1" d="M93.34,0H3.01C1.35,0,0,1.35,0,3.01v15.77c0,1.66,1.35,3.01,3.01,3.01h83.62c2.48,0,3.9,2.84,2.4,4.82l-10.55,14c-.57.75-1.46,1.2-2.4,1.2H3.01c-1.66,0-3.01,1.35-3.01,3.01h0c0,1.66,1.35,3.01,3.01,3.01h43.62c2.48,0,3.9,2.84,2.4,4.82l-10.55,14c-.57.75-1.46,1.2-2.4,1.2H3.01c-1.66,0-3.01,1.35-3.01,3.01h0c0,1.66,1.35,3.01,3.01,3.01h67.39c2.48,0,3.9,2.84,2.4,4.82l-10.55,14c-.57.75-1.46,1.2-2.4,1.2H3.01c-1.66,0-3.01,1.35-3.01,3.01v15.77c0,1.66,1.35,3.01,3.01,3.01h89.86c5.15,0,10.08-2.13,13.61-5.88l14.5-15.39c3.63-3.86,5.66-8.96,5.66-14.26v-46.29c0-5.61-2.27-10.98-6.28-14.9l-13.97-13.61c-3.49-3.4-8.17-5.31-13.05-5.31Z"/>
  </g>
</svg>