<?xml version="1.0" encoding="UTF-8"?>
<svg id="Camada_2" data-name="Camada 2" xmlns="http://www.w3.org/2000/svg" viewBox="0 0 190.63 190.63">
  <defs>
    <style>
      .cls-1 {
        fill: #74c63e;
      }

      .cls-2 {
        fill: #2e2e2e;
      }
    </style>
  </defs>
  <g id="Camada_1-2" data-name="Camada 1">
    <rect class="cls-1" width="190.63" height="190.63" rx="22" ry="22"/>
    <path class="cls-2" d="M123.01,41.98H39.67c-1.53,0-2.77,1.24-2.77,2.77v14.55c0,1.53,1.24,2.77,2.77,2.77h77.14c2.29,0,3.59,2.62,2.21,4.44l-9.74,12.91c-.52.7-1.34,1.1-2.21,1.1H39.67c-1.53,0-2.77,1.24-2.77,2.77h0c0,1.53,1.24,2.77,2.77,2.77h40.24c2.29,0,3.59,2.62,2.21,4.44l-9.74,12.91c-.52.7-1.34,1.1-2.21,1.1h-30.5c-1.53,0-2.77,1.24-2.77,2.77h0c0,1.53,1.24,2.77,2.77,2.77h62.17c2.29,0,3.59,2.62,2.21,4.44l-9.74,12.91c-.52.7-1.34,1.1-2.21,1.1h-52.43c-1.53,0-2.77,1.24-2.77,2.77v14.55c0,1.53,1.24,2.77,2.77,2.77h82.9c4.75,0,9.3-1.96,12.55-5.42l13.38-14.2c3.35-3.56,5.22-8.27,5.22-13.16v-42.71c0-5.17-2.09-10.13-5.8-13.74l-12.88-12.55c-3.22-3.14-7.54-4.89-12.04-4.89Z"/>
  </g>
</svg>